<svg xmlns="http://www.w3.org/2000/svg" viewBox="0 0 56 56" fill="none">
  <rect width="56" height="56" rx="12" fill="#1877f2"/>
  <path d="M30.5 28.5c0 1.38-.56 2.5-1.25 2.5S28 29.88 28 28.5s.56-2.5 1.25-2.5 1.25 1.12 1.25 2.5z" fill="white"/>
  <path fill-rule="evenodd" clip-rule="evenodd" d="M20 28c0-4.418 3.582-8 8-8s8 3.582 8 8c0 3.993-2.926 7.302-6.75 7.9V30.5h2l.5-2.5H29V26.5c0-.69.345-1.375 1.447-1.375H31.5V22.7s-1.043-.2-2.04-.2c-2.082 0-3.46 1.262-3.46 3.545V28H23.5l.5 2.5H26v5.4C22.026 35.202 20 31.893 20 28z" fill="white"/>
</svg>
