<svg xmlns="http://www.w3.org/2000/svg" viewBox="0 0 56 56" fill="none">
  <rect width="56" height="56" rx="12" fill="#003087"/>
  <path d="M35.2 18.4c-.8-1-2.2-1.4-4.2-1.4h-6.8c-.5 0-.9.4-1 .9L21 35.1c-.1.4.2.7.6.7h3.5l.9-5.6v.2c.1-.5.5-.9 1-.9h2.1c4.1 0 7.3-1.7 8.2-6.5.1-.3.1-.6.1-.9.3-2-.1-3.3-2.2-3.7z" fill="#009cde"/>
  <path d="M22.5 23.1c.1-.5.4-.9.8-1.1.2-.1.4-.1.6-.1H29c.7 0 1.4.1 1.9.2l.5.1.4.1c.2.1.4.1.5.2.7-4.5-2.3-5.5-5.2-5.5h-4.6c-.5 0-.9.4-1 .9L19 35.2c-.1.4.2.7.6.7h3.4l.9-5.6.6-7.2z" fill="white"/>
</svg>
